<svg width="153" height="28" viewBox="0 0 153 28" fill="none" xmlns="http://www.w3.org/2000/svg">
<path fill-rule="evenodd" clip-rule="evenodd" d="M19.4703 12.6886C19.482 13.499 19.3738 14.3067 19.1491 15.0854C18.9473 15.6932 18.6092 16.2468 18.1607 16.7039C17.5789 17.0828 16.9468 17.3781 16.2828 17.5811C15.3751 17.7195 14.4583 17.7897 13.54 17.7911H0.80231L1.0247 14.3194H13.3794C13.8242 14.3194 14.269 14.2082 14.6149 14.2082C14.8811 14.1291 15.1379 14.0213 15.3809 13.887C15.4921 13.677 15.7145 13.5658 15.7145 13.2322C15.8131 12.9552 15.851 12.6603 15.8257 12.3674C15.8952 11.7866 15.7356 11.2016 15.3809 10.7365C14.8089 10.4281 14.1647 10.2788 13.5153 10.3041H6.10249C5.17893 10.3518 4.25305 10.2813 3.34739 10.0941C2.71291 9.91394 2.11784 9.6164 1.59302 9.21691C1.16747 8.77978 0.83168 8.26351 0.604639 7.69727C0.372915 7.00068 0.264216 6.26907 0.283413 5.53519V5.05336C0.26584 4.27911 0.374334 3.50715 0.604639 2.76773C0.806421 2.15996 1.1445 1.60635 1.59302 1.14926C2.13121 0.771712 2.72244 0.476099 3.34739 0.272072C4.29068 0.0854022 5.25327 0.01487 6.21369 0.0620438H18.8402C18.729 0.605652 18.729 1.29752 18.6178 1.79171C18.5986 2.37808 18.5241 2.96132 18.3955 3.53372H6.18898C5.53514 3.50238 4.88534 3.65201 4.31106 3.96615C4.02679 4.4219 3.87691 4.94863 3.87865 5.48577C3.86047 6.02506 4.01168 6.55649 4.31106 7.00541C4.86673 7.36584 5.53163 7.51894 6.18898 7.43782H13.4289C14.3574 7.42158 15.284 7.52961 16.184 7.75905C16.8668 7.89862 17.5065 8.19937 18.0495 8.63623C18.5598 8.97327 18.9459 9.46787 19.1491 10.0447C19.3754 10.7085 19.4841 11.4067 19.4703 12.1079V12.6886Z" fill="#002856"/>
<path fill-rule="evenodd" clip-rule="evenodd" d="M40.1412 17.7928L37.868 13.7034H27.1688L24.8955 17.7928H20.8926L30.6281 0.00195312H34.3345L44.0577 17.7928H40.1412ZM32.506 3.56011L28.5031 10.8988H36.6078L32.506 3.56011Z" fill="#002856"/>
<path fill-rule="evenodd" clip-rule="evenodd" d="M62.7964 17.7928V6.14226L57.0761 17.7928H53.7774L48.0448 6.14226V17.7928H44.7461V0.00195312H48.712L55.4206 14.2346L62.2528 0.00195312H66.1074V17.7928H62.7964Z" fill="#002856"/>
<path fill-rule="evenodd" clip-rule="evenodd" d="M76.7611 17.7928V11.3189L68.2363 0.00195312H72.2887L78.6143 8.41553L84.8411 0.00195312H88.8811L80.2575 11.3189V17.7928H76.7611Z" fill="#002856"/>
<path fill-rule="evenodd" clip-rule="evenodd" d="M106.191 17.7928L103.905 13.7034H93.0451L90.7471 17.7928H86.7441L96.6279 0.00195312H100.334L110.218 17.7928H106.191ZM98.5429 3.56011L94.3917 10.8988H102.595L98.5429 3.56011Z" fill="#002856"/>
<path fill-rule="evenodd" clip-rule="evenodd" d="M127.031 17.7928L114.342 4.74618V17.7928H110.957V0.00195312H114.676L127.031 12.9374V0.00195312H130.527V17.7928H127.031Z" fill="#002856"/>
<path fill-rule="evenodd" clip-rule="evenodd" d="M150.023 17.7926L149.924 15.6429C149.858 15.9117 149.745 16.1668 149.591 16.3965C149.395 16.6974 149.138 16.9541 148.837 17.1502C148.554 17.3755 148.218 17.5244 147.861 17.5826C147.419 17.7617 146.941 17.8336 146.465 17.7926H138.892C137.986 17.7914 137.081 17.7212 136.186 17.5826C135.566 17.415 135.005 17.0769 134.568 16.6066C134.117 16.1148 133.784 15.5278 133.592 14.8893C133.45 13.961 133.375 13.0237 133.369 12.0847V5.82089C133.374 4.91875 133.449 4.01832 133.592 3.12756C133.758 2.44572 134.094 1.81684 134.568 1.29905C135.002 0.824486 135.564 0.485537 136.186 0.323028C137.069 0.0924876 137.979 -0.0155916 138.892 0.00181116H147.972C148.564 -0.00380066 149.152 0.105276 149.702 0.323028C150.127 0.511863 150.539 0.726416 150.938 0.965479C151.276 1.20281 151.573 1.49512 151.815 1.83031C151.998 2.09741 152.143 2.3884 152.247 2.69513L150.073 4.95605C149.882 4.59173 149.627 4.26517 149.319 3.99239C148.891 3.66022 148.351 3.50541 147.812 3.55997H139.04C138.43 3.48383 137.813 3.63802 137.31 3.99239C137.003 4.55124 136.853 5.18341 136.878 5.82089V11.5411C136.878 12.1836 136.989 12.616 136.989 12.9372C137.064 13.2364 137.172 13.5265 137.31 13.802C137.501 13.9839 137.723 14.1303 137.965 14.2345C138.286 14.2345 138.608 14.3457 139.04 14.3457H147.157C147.865 14.3637 148.567 14.2156 149.208 13.9132C149.376 13.7538 149.511 13.5624 149.604 13.3503C149.698 13.1381 149.748 12.9095 149.752 12.6778V10.4168H143.043V7.50114H153.001V17.8544L150.023 17.7926Z" fill="#002856"/>
<path fill-rule="evenodd" clip-rule="evenodd" d="M0.0843641 27.0488C-1.88004 25.035 30.6994 23.2559 72.9032 23.1323C115.107 23.0088 150.874 24.7014 152.838 26.7152C152.949 26.8264 152.95 26.8264 152.95 26.9376L0.0843641 27.0488Z" fill="#002856"/>
</svg>
