<svg width="68" height="83" viewBox="0 0 68 83" fill="none" xmlns="http://www.w3.org/2000/svg">
<path d="M47.9344 48.3567C52.2037 46.5932 55.9275 43.6928 59.0345 39.7249C62.2365 35.5946 63.873 30.8611 63.873 25.6402C63.873 22.2989 63.1141 19.0039 61.5961 15.8714C60.1256 12.7853 57.9909 10.024 55.2633 7.63405C52.4646 5.17445 49.1915 3.27174 45.4915 1.94912C41.8151 0.649706 37.8779 0 33.7272 0H0V82.9768H14.2546V41.442L49.3101 83H68L40.5581 50.5611C43.0248 50.1666 45.5152 49.4241 47.9344 48.3567ZM14.2546 13.9455H33.7272C37.0241 13.9455 39.9414 14.572 42.3844 15.7786C44.7799 16.9852 46.6062 18.4934 47.8396 20.3033C49.0255 22.0204 49.5947 23.7607 49.5947 25.617C49.5947 27.7053 48.9543 29.492 47.5549 31.2555C46.0133 33.2046 44.2344 34.6665 42.3844 35.525C39.301 36.778 35.0792 37.4045 29.8375 37.4045H14.2783V13.9455H14.2546Z" fill="white"/>
</svg>
