<svg width="67" height="83" viewBox="0 0 67 83" fill="none" xmlns="http://www.w3.org/2000/svg">
<path d="M55.9666 12.6264C52.2261 8.58781 47.7563 5.45442 42.6513 3.27265C37.5463 1.09088 31.9709 0 26.066 0H0V83H26.066C31.9709 83 37.5463 81.9091 42.6513 79.7273C47.7798 77.5456 52.2732 74.3426 56.0137 70.2343C59.519 66.3582 62.2479 61.9018 64.1534 56.9813C66.0355 52.0839 67 46.8384 67 41.3839C67 35.9295 66.0355 30.6608 64.1534 25.7866C62.2479 20.8661 59.4954 16.4329 55.9666 12.6264ZM13.9975 13.9262H26.066C34.1352 13.9262 40.5576 16.5721 45.6861 22.0266C47.9916 24.4869 49.7795 27.4114 51.0028 30.7072C52.2496 34.0727 52.8848 37.6471 52.8848 41.4072C52.8848 45.2136 52.2496 48.8577 51.0028 52.2232C49.7795 55.519 47.9916 58.4435 45.639 60.9502C40.5811 66.5207 34.1822 69.2363 26.066 69.2363H13.9975V13.9262Z" fill="white"/>
</svg>
