<svg width="67" height="85" viewBox="0 0 67 85" fill="none" xmlns="http://www.w3.org/2000/svg">
<path d="M55.2468 0H53.6516V51.1074C53.6516 53.8871 53.1355 56.5732 52.1033 59.0959C51.0711 61.5952 49.6166 63.7909 47.7868 65.6128C45.8631 67.5282 43.6579 69.0231 41.2181 70.0275C38.7784 71.0319 36.1744 71.5458 33.4765 71.5458C30.8256 71.5458 28.2686 71.0319 25.8522 70.0275C23.4125 68.9997 21.1838 67.5282 19.2602 65.6128C17.4303 63.7909 15.9759 61.5952 14.9436 59.0959C13.9114 56.5966 13.3953 53.9104 13.3953 51.1074V0H11.8001H1.6187H0V51.1074C0 55.6389 0.844555 60.0069 2.51017 64.0945C4.17579 68.2523 6.61556 71.8728 9.73566 74.886C12.8792 78.1094 16.5389 80.6087 20.6208 82.3605C24.7262 84.1124 29.0427 85 33.4531 85C38.0511 85 42.438 84.1124 46.4965 82.3605C50.5315 80.6087 54.1677 78.1094 57.2174 74.9794C60.3844 71.9195 62.8477 68.2523 64.5133 64.1179C66.1789 60.0302 67 55.6389 67 51.1308V0H65.3813H55.2468Z" fill="white"/>
</svg>
