<svg width="78" height="71" viewBox="0 0 78 71" fill="none" xmlns="http://www.w3.org/2000/svg">
<path fill-rule="evenodd" clip-rule="evenodd" d="M65.8241 70.3237L65.4335 61.8272C65.1721 62.8897 64.7259 63.8979 64.1151 64.8058C63.3402 65.995 62.3256 67.0096 61.1364 67.7845C60.018 68.675 58.6897 69.2635 57.2787 69.4936C55.5306 70.2014 53.6399 70.4858 51.7609 70.3237H21.8275C18.2469 70.3189 14.6719 70.0414 11.1335 69.4936C8.68237 68.8313 6.46618 67.4948 4.73661 65.636C2.95687 63.6922 1.63832 61.3722 0.878996 58.8485C0.318262 55.1797 0.0244659 51.4751 0 47.7638V23.0065C0.0201915 19.4409 0.314079 15.8821 0.878996 12.3614C1.5371 9.66648 2.86382 7.18091 4.73661 5.13439C6.45241 3.25871 8.67386 1.91904 11.1335 1.27674C14.6231 0.365549 18.2215 -0.0616243 21.8275 0.00715845H57.7183C60.0576 -0.0150218 62.3791 0.416093 64.5546 1.27674C66.2324 2.02309 67.8631 2.87109 69.4377 3.81597C70.7759 4.754 71.9478 5.90932 72.9047 7.23412C73.6283 8.28981 74.2034 9.43995 74.6137 10.6523L66.0195 19.5884C65.2662 18.1484 64.2568 16.8577 63.0408 15.7795C61.3478 14.4667 59.2149 13.8548 57.0834 14.0705H22.4134C20.0013 13.7695 17.5638 14.3789 15.5771 15.7795C14.361 17.9884 13.7701 20.487 13.868 23.0065V45.6153C13.868 48.1545 14.3075 49.8636 14.3075 51.1332C14.6036 52.3159 15.0293 53.4622 15.5771 54.5513C16.3317 55.2699 17.208 55.8486 18.1651 56.2604C19.4347 56.2604 20.7043 56.6999 22.4134 56.6999H54.4954C57.2938 56.7711 60.0699 56.1858 62.6014 54.9908C63.2663 54.3607 63.7988 53.6043 64.1678 52.7658C64.5367 51.9273 64.7346 51.0236 64.7499 50.1077V41.1716H38.2347V29.6476H77.5924V70.5679L65.8241 70.3237Z" fill="white"/>
</svg>
