<svg width="76" height="71" viewBox="0 0 76 71" fill="none" xmlns="http://www.w3.org/2000/svg">
<path fill-rule="evenodd" clip-rule="evenodd" d="M75.843 50.1498C75.8894 53.3529 75.4616 56.5452 74.5735 59.623C73.7759 62.0252 72.4397 64.2132 70.667 66.0199C68.3674 67.5174 65.8689 68.6845 63.2446 69.4869C59.657 70.0339 56.0333 70.3114 52.4042 70.317H2.05944L2.9384 56.5955H51.7694C53.5273 56.5955 55.2852 56.1561 56.6525 56.1561C57.7045 55.8431 58.7195 55.4174 59.68 54.8864C60.1195 54.0563 60.9985 53.6168 60.9985 52.2984C61.3883 51.2036 61.5381 50.0379 61.4379 48.8802C61.7126 46.5848 61.082 44.2727 59.68 42.4345C57.4193 41.2155 54.873 40.6253 52.3066 40.7254H23.0079C19.3576 40.9141 15.6982 40.6351 12.1186 39.8953C9.61091 39.1833 7.25894 38.0073 5.18466 36.4283C3.5027 34.7006 2.17553 32.6601 1.27817 30.4221C0.362299 27.6689 -0.0673262 24.7773 0.00854996 21.8767V19.9723C-0.0609067 16.9121 0.367905 13.861 1.27817 10.9386C2.07569 8.53638 3.41191 6.34831 5.18466 4.54168C7.31182 3.04947 9.64858 1.88109 12.1186 1.07469C15.8469 0.336892 19.6514 0.0581201 23.4474 0.24457H73.3527C72.9132 2.39313 72.9132 5.12767 72.4737 7.08091C72.3976 9.39848 72.1033 11.7037 71.5948 13.9661H23.3497C20.7655 13.8422 18.1973 14.4336 15.9275 15.6752C14.8039 17.4765 14.2115 19.5584 14.2184 21.6814C14.1465 23.8128 14.7442 25.9133 15.9275 27.6876C18.1237 29.1122 20.7517 29.7173 23.3497 29.3967H51.9647C55.6348 29.3325 59.2971 29.7595 62.854 30.6663C65.553 31.2179 68.0811 32.4066 70.2275 34.1333C72.2443 35.4654 73.7705 37.4202 74.5735 39.7C75.4677 42.3237 75.8974 45.0834 75.843 47.8548V50.1498Z" fill="white"/>
</svg>
