<svg width="168" height="41" viewBox="0 0 168 41" fill="none" xmlns="http://www.w3.org/2000/svg">
<g clip-path="url(#clip0_932_159)">
<path fill-rule="evenodd" clip-rule="evenodd" d="M21.0294 14.0805C21.0533 14.9775 20.9317 15.8724 20.6694 16.7305C20.4323 17.422 20.0204 18.0404 19.4737 18.5258C18.927 19.0111 18.2641 19.3469 17.5494 19.5005C16.5709 19.7588 15.5612 19.8799 14.5494 19.8605H0.479395L0.839395 15.8605H14.2994C14.7429 15.8859 15.1877 15.8454 15.6194 15.7405C15.7778 15.7429 15.9349 15.7111 16.0798 15.6473C16.2248 15.5834 16.3543 15.489 16.4594 15.3705C16.6057 15.1875 16.7268 14.9857 16.8194 14.7705C16.9333 14.4226 16.9741 14.0549 16.9394 13.6905C16.9798 13.3909 16.958 13.0863 16.8754 12.7955C16.7928 12.5047 16.6512 12.2341 16.4594 12.0005C15.8204 11.5862 15.0537 11.4158 14.2994 11.5205H6.36941C5.35718 11.5479 4.34642 11.4266 3.36941 11.1605C2.63419 11.0556 1.95681 10.7028 1.4494 10.1605C0.929983 9.71652 0.55411 9.12834 0.36941 8.47048C0.114136 7.7381 -0.00779242 6.96589 0.00940888 6.19048V5.46048C-0.00586003 4.60665 0.115679 3.75589 0.36941 2.94048C0.580047 2.29457 0.951717 1.71296 1.4494 1.25048C1.98938 0.752758 2.65204 0.407625 3.36941 0.250482C4.39072 -0.015613 5.44435 -0.1368 6.4994 -0.109519H20.3194C20.1994 0.610481 20.1994 1.21048 20.0794 1.89048C19.9594 2.57048 19.9594 3.10048 19.8394 3.82048H6.4894C5.787 3.73981 5.07868 3.90981 4.4894 4.30048C4.15289 4.79804 3.98467 5.39032 4.00941 5.99048C4.00558 6.58484 4.17215 7.16785 4.4894 7.67048C5.07868 8.06115 5.787 8.23115 6.4894 8.15048H14.2994C15.3545 8.1232 16.4081 8.24439 17.4294 8.51048C18.1561 8.62418 18.8432 8.91622 19.4294 9.36048C19.9953 9.78115 20.415 10.3687 20.6294 11.0405C20.8851 11.7347 21.0072 12.4709 20.9894 13.2105L21.0294 14.0805Z" fill="white"/>
<path fill-rule="evenodd" clip-rule="evenodd" d="M35.2498 3.82094L30.8699 12.1209H39.7399L35.2498 3.82094ZM43.5298 19.8209L41.1599 15.2409H29.3298L26.9599 19.8209H22.5898L33.2298 -0.0390625H37.2298L47.8999 19.8209H43.5298Z" fill="white"/>
<path fill-rule="evenodd" clip-rule="evenodd" d="M68.1097 19.82V6.82L61.9497 19.82H58.3897L52.2297 6.82V19.82H48.6797V0H52.9497L60.1697 15.89L67.5097 0H71.6597V19.82H68.1097Z" fill="white"/>
<path fill-rule="evenodd" clip-rule="evenodd" d="M83.5909 19.82V12.52L74.3809 0H78.8009L85.7309 9.26L92.4209 0H96.9609L87.5209 12.52V19.82H83.5909Z" fill="white"/>
<path fill-rule="evenodd" clip-rule="evenodd" d="M107.551 3.82094L103.001 12.1209H112.001L107.551 3.82094ZM115.921 19.8209L113.411 15.2409H101.571L99.0606 19.8209H94.6406L105.521 -0.0390625H109.461L120.341 19.8209H115.921Z" fill="white"/>
<path fill-rule="evenodd" clip-rule="evenodd" d="M138.32 19.82L124.32 5.13V19.82H120.73V0H124.8L138.32 14.32V0H142.15V19.82H138.32Z" fill="white"/>
<path fill-rule="evenodd" clip-rule="evenodd" d="M163.801 19.8193L163.681 17.4093C163.54 17.6795 163.419 17.9604 163.321 18.2493C163.065 18.5191 162.784 18.7635 162.481 18.9793C162.16 19.2468 161.79 19.4505 161.391 19.5793C160.874 19.7292 160.34 19.8099 159.801 19.8193H151.371C150.359 19.8401 149.35 19.7189 148.371 19.4593C147.631 19.3606 146.949 19.007 146.441 18.4593C146.017 17.8424 145.68 17.1693 145.441 16.4593C145.279 15.4238 145.195 14.3775 145.191 13.3293V6.32932C145.205 5.32472 145.289 4.3223 145.441 3.32932C145.674 2.63847 146.011 1.98751 146.441 1.39931C146.978 0.874528 147.644 0.501785 148.371 0.319313C149.35 0.0597195 150.359 -0.0614602 151.371 -0.0406875H161.491C162.141 -0.0274199 162.788 0.0530056 163.421 0.19931C163.903 0.408306 164.348 0.69178 164.741 1.03931C165.138 1.30221 165.479 1.64229 165.741 2.03931C165.948 2.29371 166.11 2.58105 166.221 2.88931L163.801 5.40931C163.592 5.02226 163.307 4.68197 162.961 4.40931C162.48 4.03871 161.875 3.8669 161.271 3.92931H151.511C150.83 3.8348 150.139 4.00674 149.581 4.40931C149.233 4.99042 149.065 5.66251 149.101 6.33931V12.7193C149.067 13.2822 149.107 13.8471 149.221 14.3993C149.32 14.74 149.44 15.074 149.581 15.3993C149.672 15.5067 149.783 15.5948 149.909 15.6584C150.034 15.7219 150.171 15.7596 150.311 15.7693C150.702 15.8747 151.108 15.9152 151.511 15.8893H160.511C161.307 15.9732 162.109 15.8016 162.801 15.3993C163.001 15.2449 163.161 15.0439 163.265 14.8138C163.37 14.5837 163.417 14.3316 163.401 14.0793V11.5493H155.931V8.29932H167.011V19.8193H163.801Z" fill="white"/>
<path fill-rule="evenodd" clip-rule="evenodd" d="M0.210063 28.4296C-1.94994 26.1596 33.8301 24.4296 80.0101 24.2596C126.19 24.0896 165.31 25.8096 167.34 28.0696C167.372 28.0696 167.402 28.0823 167.425 28.1048C167.447 28.1273 167.46 28.1578 167.46 28.1896L0.210063 28.4296Z" fill="white"/>
<path fill-rule="evenodd" clip-rule="evenodd" d="M17.8596 40.5005H16.7996C16.5334 40.3795 16.2899 40.2138 16.0796 40.0105C15.9117 39.7901 15.7894 39.5386 15.7196 39.2705C15.7196 39.0205 15.5996 38.6505 15.5996 38.1605V35.4405C15.5996 35.0705 15.7196 34.5805 15.7196 34.3305C15.7894 34.0624 15.9117 33.8109 16.0796 33.5905C16.1692 33.4843 16.2789 33.3968 16.4025 33.3333C16.5261 33.2698 16.6611 33.2315 16.7996 33.2205C17.1506 33.1214 17.5155 33.0809 17.8796 33.1005H21.9696C22.3296 33.1005 22.5696 33.1005 22.6896 33.2205C22.8096 33.3405 23.0596 33.3505 23.2996 33.4705C23.5396 33.5905 23.5396 33.7205 23.5396 33.8405C23.5396 33.9605 23.7796 34.0905 23.7796 34.2105L22.7796 35.0705C22.7796 34.9505 22.6596 34.8305 22.5396 34.7005C22.3598 34.5917 22.1475 34.5492 21.9396 34.5805H17.8496C17.6417 34.5492 17.4295 34.5917 17.2496 34.7005C17.1175 34.9271 17.0357 35.1795 17.0096 35.4405V38.1605C17.002 38.2272 17.0088 38.2947 17.0295 38.3585C17.0502 38.4223 17.0844 38.481 17.1296 38.5305C17.122 38.5972 17.1288 38.6647 17.1495 38.7285C17.1702 38.7923 17.2044 38.851 17.2496 38.9005C17.3143 38.9657 17.3986 39.0078 17.4896 39.0205H21.9396C22.1475 39.0518 22.3598 39.0093 22.5396 38.9005L22.8996 38.5305L23.7496 39.5305C23.6848 39.5995 23.6429 39.6868 23.6296 39.7805L23.2696 40.1505C23.1496 40.2705 22.8996 40.4005 22.7796 40.5205H17.8496L17.8596 40.5005Z" fill="white"/>
<path fill-rule="evenodd" clip-rule="evenodd" d="M30.4591 40.4996V37.4196H26.0191V40.4996H24.5391V33.0996H26.0191V36.0996H30.4591V33.0996H31.9291V40.4996H30.4591Z" fill="white"/>
<path fill-rule="evenodd" clip-rule="evenodd" d="M33.0996 40.4996V33.0996H40.0996V34.5796H34.5196V36.1796H39.8696V37.4196H34.5196V39.0196H40.0996V40.4996H33.0996Z" fill="white"/>
<path fill-rule="evenodd" clip-rule="evenodd" d="M48.1913 40.4996V35.6896L46.0013 40.4996H44.7413L42.5513 35.6896V40.4996H41.2812V33.0996H42.8013L45.4512 39.0196L48.1013 33.0996H49.4812V40.4996H48.1913Z" fill="white"/>
<path fill-rule="evenodd" clip-rule="evenodd" d="M51.4102 33.0996H52.9702V40.4996H51.4102V33.0996Z" fill="white"/>
<path fill-rule="evenodd" clip-rule="evenodd" d="M56.3298 40.5002H55.2298C54.979 40.407 54.765 40.2351 54.6199 40.0102C54.4951 39.9345 54.3949 39.8244 54.331 39.6932C54.2672 39.562 54.2425 39.4151 54.2599 39.2702C54.1372 38.9139 54.0928 38.5353 54.1298 38.1602V35.4402C54.1013 35.0653 54.1455 34.6884 54.2599 34.3302C54.2425 34.1853 54.2672 34.0385 54.331 33.9073C54.3949 33.7761 54.4951 33.666 54.6199 33.5902C54.6773 33.4781 54.7647 33.3841 54.8724 33.3188C54.9801 33.2535 55.1039 33.2193 55.2298 33.2202C55.5876 33.1211 55.9591 33.0806 56.3298 33.1002H60.5998C60.8109 33.0682 61.0266 33.1107 61.2098 33.2202C61.4369 33.2263 61.6539 33.3152 61.8198 33.4702L62.1898 33.8402C62.1898 33.9602 62.3098 34.0902 62.3098 34.2102L61.4598 35.0702L61.0898 34.7002C60.9066 34.5907 60.6909 34.5482 60.4798 34.5802H56.4798C56.1198 34.5802 55.8698 34.5802 55.7498 34.7002C55.6177 34.9269 55.5359 35.1792 55.5099 35.4402V38.1602C55.5099 38.2802 55.6298 38.4002 55.6298 38.5302C55.6223 38.5969 55.6291 38.6644 55.6498 38.7282C55.6705 38.792 55.7046 38.8507 55.7498 38.9002C55.8146 38.9654 55.8989 39.0076 55.9898 39.0202H60.5099C60.8799 39.0202 60.9999 39.0202 61.1199 38.9002C61.2399 38.7802 61.3698 38.6502 61.4898 38.5302L62.3398 39.5302C62.3318 39.6255 62.2891 39.7144 62.2198 39.7802L61.8498 40.1502C61.7298 40.2702 61.4899 40.4002 61.3699 40.5202H56.3699L56.3298 40.5002Z" fill="white"/>
<path fill-rule="evenodd" clip-rule="evenodd" d="M67.4292 34.5796L65.7992 37.6596H68.9892L67.4292 34.5796ZM70.4292 40.4996L69.5992 38.7696H65.2292L64.3992 40.4996H62.6992L66.6092 33.0996H68.1392L72.0492 40.4996H70.4292Z" fill="white"/>
<path fill-rule="evenodd" clip-rule="evenodd" d="M72.8008 40.4996V33.0996H74.2508V39.0196H79.8008V40.4996H72.8008Z" fill="white"/>
<path fill-rule="evenodd" clip-rule="evenodd" d="M84.1211 33.0996H85.6811V40.4996H84.1211V33.0996Z" fill="white"/>
<path fill-rule="evenodd" clip-rule="evenodd" d="M93.2196 40.4996L88.1496 35.0696V40.4996H86.8496V33.0996H88.2596L93.2596 38.5296V33.0996H94.6796V40.4996H93.2196Z" fill="white"/>
<path fill-rule="evenodd" clip-rule="evenodd" d="M102.901 35.4403C102.916 35.1723 102.831 34.9081 102.661 34.7003C102.477 34.5915 102.262 34.5491 102.051 34.5803H97.2708V39.0203H102.051C102.262 39.0515 102.477 39.0091 102.661 38.9003C102.831 38.6925 102.916 38.4283 102.901 38.1603V35.4403ZM95.8008 40.5003V33.1003H102.051C102.422 33.0812 102.793 33.1217 103.151 33.2203C103.434 33.242 103.696 33.3751 103.881 33.5903L104.251 34.3303C104.251 34.7003 104.371 35.0703 104.371 35.4403V38.1603C104.371 38.5303 104.251 39.0203 104.251 39.2703C104.183 39.541 104.057 39.7936 103.881 40.0103C103.667 40.2139 103.42 40.3796 103.151 40.5003H95.8008Z" fill="white"/>
<path fill-rule="evenodd" clip-rule="evenodd" d="M107.38 40.4996C107.042 40.5281 106.701 40.4873 106.38 40.3796C106.234 40.3973 106.086 40.3717 105.954 40.3059C105.822 40.2401 105.713 40.1371 105.64 40.0096L105.27 39.2696C105.147 38.9133 105.103 38.5347 105.14 38.1596V33.0996H106.63V38.1596C106.63 38.5296 106.63 38.7696 106.75 38.8996C106.938 39.0055 107.155 39.0476 107.37 39.0196H111.09C111.304 39.0476 111.521 39.0055 111.71 38.8996C111.83 38.7696 111.83 38.5296 111.83 38.1596V33.0996H113.32V38.1596C113.354 38.5339 113.313 38.9112 113.2 39.2696C113.2 39.5096 112.95 39.7596 112.82 40.0096C112.746 40.1371 112.637 40.2401 112.505 40.3059C112.374 40.3717 112.226 40.3973 112.08 40.3796C111.758 40.4873 111.418 40.5281 111.08 40.4996H107.38Z" fill="white"/>
<path fill-rule="evenodd" clip-rule="evenodd" d="M121.9 38.4003C121.929 38.7383 121.888 39.0786 121.78 39.4003L121.41 40.1403C121.137 40.2856 120.853 40.4093 120.56 40.5103H114.23L114.35 39.0303H119.95C120.07 39.0303 120.07 39.0303 120.19 38.9103C120.31 38.7903 120.32 38.7803 120.32 38.6603C120.366 38.6111 120.4 38.5525 120.421 38.4886C120.442 38.4247 120.448 38.357 120.44 38.2903C120.452 38.1744 120.435 38.0575 120.391 37.9495C120.348 37.8415 120.279 37.7457 120.19 37.6703C120.09 37.5841 119.974 37.5185 119.849 37.4773C119.724 37.4362 119.591 37.4202 119.46 37.4303H116.46C116.092 37.4682 115.719 37.4238 115.37 37.3003C115.229 37.2936 115.091 37.2571 114.965 37.1934C114.84 37.1296 114.729 37.0399 114.64 36.9303C114.487 36.7466 114.362 36.541 114.27 36.3203C114.163 36.0435 114.122 35.7457 114.15 35.4503V35.2103C114.115 34.9226 114.14 34.6308 114.225 34.3535C114.309 34.0763 114.451 33.8197 114.64 33.6003C114.731 33.4929 114.842 33.4048 114.967 33.3412C115.093 33.2777 115.23 33.2399 115.37 33.2303C115.724 33.1312 116.093 33.0907 116.46 33.1103H121.69C121.709 33.363 121.668 33.6166 121.57 33.8503V34.5903H116.46C116.249 34.5591 116.034 34.6015 115.85 34.7103C115.61 34.8403 115.61 35.0803 115.61 35.3303C115.61 35.5803 115.61 35.9503 115.85 36.0703C116.034 36.1791 116.249 36.2214 116.46 36.1903H119.46C119.832 36.1525 120.207 36.1969 120.56 36.3203C120.854 36.417 121.139 36.5409 121.41 36.6903C121.556 36.8788 121.68 37.0835 121.78 37.3003C121.887 37.577 121.928 37.8749 121.9 38.1703V38.4003Z" fill="white"/>
<path fill-rule="evenodd" clip-rule="evenodd" d="M125.28 40.4996V34.5796H122.68V33.0996H129.3V34.5796H126.7V40.4996H125.28Z" fill="white"/>
<path fill-rule="evenodd" clip-rule="evenodd" d="M136.91 35.6906C136.91 35.3206 136.91 34.9506 136.78 34.8306C136.65 34.7106 136.53 34.5806 136.29 34.5806H131.57V36.9206H136.29C136.384 36.9192 136.477 36.897 136.562 36.8555C136.647 36.814 136.721 36.7543 136.78 36.6806C136.91 36.5506 136.91 36.3106 136.91 35.9406V35.6906ZM136.53 40.5006L133.93 38.1606H131.57V40.5006H130.08V33.1006H136.29C136.628 33.0721 136.968 33.1129 137.29 33.2206C137.534 33.2668 137.754 33.3979 137.91 33.5906C138.038 33.6641 138.141 33.7734 138.206 33.905C138.272 34.0366 138.298 34.1846 138.28 34.3306C138.403 34.687 138.447 35.0656 138.41 35.4406V35.8206C138.449 36.1957 138.404 36.5746 138.28 36.9306C138.21 37.2004 138.084 37.4524 137.91 37.6706C137.632 37.8197 137.341 37.9436 137.04 38.0406H135.92L138.65 40.5106L136.53 40.5006Z" fill="white"/>
<path fill-rule="evenodd" clip-rule="evenodd" d="M139.42 33.0996H140.59V40.4996H139.42V33.0996Z" fill="white"/>
<path fill-rule="evenodd" clip-rule="evenodd" d="M146.491 34.5796L144.801 37.6596H148.111L146.491 34.5796ZM149.571 40.4996L148.621 38.7696H144.241L143.421 40.4996H141.801L145.801 33.0996H147.221L151.131 40.4996H149.571Z" fill="white"/>
<path fill-rule="evenodd" clip-rule="evenodd" d="M151.5 40.4996V33.0996H152.95V39.0196H158.51V40.4996H151.5Z" fill="white"/>
</g>
<defs>
<clipPath id="clip0_932_159">
<rect width="167.46" height="40.5" fill="white"/>
</clipPath>
</defs>
</svg>
